<?xml version="1.0" encoding="UTF-8"?>
<!-- Generator: Adobe Illustrator 26.0.2, SVG Export Plug-In . SVG Version: 6.00 Build 0)  -->
<svg version="1.1" id="Layer_1" xmlns="http://www.w3.org/2000/svg" xmlns:xlink="http://www.w3.org/1999/xlink" x="0px" y="0px" viewBox="0 0 640 340" style="enable-background:new 0 0 640 340;" xml:space="preserve">
<style type="text/css">
	.st0{fill-rule:evenodd;clip-rule:evenodd;fill:#000000;}
</style>
<g>
	<path class="st0" d="M108.7,96.6c1.4-1,2.2-1.8,2.4-2.4c0.2-0.6-0.1-1.7-0.9-3.2l-9.9-17.9c-0.8-1.4-1.5-2.2-2.2-2.4   c-0.7-0.2-1.8,0-3.4,0.8l-0.4-0.7l21.3-11.8l3.3,5.7l-1,0.6c-1.3-1.6-2.5-2.5-3.4-2.6c-1-0.2-2.6,0.4-5,1.7l-5.5,3   c-0.6,0.3-0.9,0.6-0.9,0.9c0,0.2,0.1,0.6,0.4,1.2l5,9l6.2-3.4c1.7-0.9,2.7-1.8,2.9-2.6c0.2-0.8,0-2-0.6-3.7l0.9-0.5l5.2,9.3   l-0.9,0.5c-1.2-1.4-2.1-2.2-2.9-2.4c-0.8-0.2-2,0.1-3.7,1l-6.2,3.4l5.5,10c0.5,0.8,1,1.2,1.5,1c0.6-0.1,2.1-0.9,4.7-2.3   c2.7-1.5,4.6-2.9,5.5-4.2c1-1.3,1.3-3.4,1.1-6.3l1.1-0.6l1.9,7.8l-21.7,12L108.7,96.6z"/>
	<path class="st0" d="M134.9,73.3c1.5,1.6,3.1,2.7,4.5,3.4c2.5,1.2,5,1.3,7.5,0.2c1.3-0.6,2.3-1.5,2.9-2.8c0.6-1.3,0.6-2.7-0.1-4.2   c-0.6-1.4-1.6-2.3-3.1-2.9c-0.9-0.4-2.7-0.7-5.3-1.1l-4.6-0.6c-1.4-0.2-2.6-0.5-3.5-0.9c-1.8-0.8-3-2-3.7-3.6   c-0.9-2.1-1-4.2-0.3-6.2c0.8-2,2.3-3.6,4.7-4.6c0.9-0.4,2.2-0.7,3.8-0.8c1.6-0.1,2.4-0.2,2.6-0.3c0.5-0.2,0.8-0.5,0.9-0.8   c0.1-0.3,0.1-0.8,0-1.3l0.9-0.4l4.9,8.5l-1,0.5c-1.9-2.4-3.8-3.8-5.8-4.2c-2-0.4-3.7-0.3-5.2,0.4c-1.2,0.5-2,1.3-2.6,2.4   c-0.6,1-0.6,2.2,0,3.4c0.5,1.1,1.2,1.9,2.2,2.3c1,0.5,2.4,0.8,4.1,1.1l4.7,0.6c3,0.4,5.2,1,6.6,1.8c1.5,0.8,2.6,2,3.3,3.6   c1,2.2,1,4.4,0,6.6c-1,2.2-2.8,3.9-5.4,5c-1.3,0.6-2.8,0.9-4.4,1.1c-1.6,0.1-2.5,0.3-2.7,0.3c-0.5,0.2-0.8,0.5-0.8,0.9   c0,0.4,0,0.7,0.1,1.1l-0.9,0.4l-5.2-8.4L134.9,73.3z"/>
	<path class="st0" d="M152.1,42.4l24.4-8.9l2.9,7.3l-1,0.4c-1.3-2.1-2.5-3.4-3.6-3.8c-1-0.4-2.8-0.2-5.3,0.7l-2.4,0.9l8.1,22.1   c0.6,1.7,1.2,2.6,1.9,2.8c0.7,0.2,1.9,0.1,3.7-0.5l0.3,0.8l-12.6,4.6l-0.3-0.8c1.8-0.8,2.8-1.5,3.1-2.2c0.3-0.6,0.1-1.9-0.6-3.7   l-7.9-21.6l-2.4,0.9c-2.4,0.9-3.9,1.8-4.5,2.8c-0.6,1-0.7,2.8-0.3,5.2l-1,0.4L152.1,42.4z"/>
	<path class="st0" d="M203.5,44.8l-8.6-10.7l-1.5,13.6L203.5,44.8z M187.7,61.6l-0.2-0.8c1.1-0.4,1.8-1.1,2.2-2   c0.4-0.9,0.8-3.2,1.2-6.8l3-24.3l0.9-0.2l18.2,21.9c1.2,1.5,2.1,2.3,2.6,2.6c0.6,0.2,1.4,0.3,2.4,0.2l0.2,0.8L207,56.1l-0.2-0.8   c1.3-0.5,2.1-0.9,2.4-1.1c0.3-0.3,0.4-0.7,0.2-1.4c-0.1-0.2-0.2-0.6-0.6-1.1c-0.3-0.5-0.7-1-1.1-1.6l-3.1-3.7l-11.6,3.3   c-0.3,3.2-0.5,5.2-0.5,5.9c0,0.7,0,1.2,0.1,1.6c0.2,0.7,0.7,1.2,1.3,1.3c0.4,0.1,1.2,0,2.2-0.2l0.2,0.8L187.7,61.6z"/>
	<path class="st0" d="M240.5,45.4c1.4-1.2,1.8-3.1,1.3-5.6c-0.5-2.5-1.7-4.1-3.7-4.7c-2-0.6-4.4-0.6-7.2,0c-0.7,0.1-1.1,0.2-1.3,0.2   c-0.2,0-0.5,0.1-0.8,0.1l2.2,11.3c0.1,0.8,0.5,1.2,1,1.4c0.5,0.1,1.5,0.1,3.1-0.3C237.2,47.4,239.1,46.6,240.5,45.4 M222.4,51.1   c1.8-0.5,2.9-1,3.3-1.5c0.5-0.6,0.5-1.7,0.2-3.4l-3.9-20.1c-0.3-1.6-0.8-2.7-1.4-3c-0.6-0.4-1.9-0.4-3.7-0.2l-0.2-0.8l12.7-2.5   c3.6-0.7,6.6-0.7,8.9,0.1c2.4,0.7,3.8,2.5,4.4,5.4c0.4,2.1,0,3.9-1.3,5.3c-0.7,0.8-1.9,1.6-3.5,2.3c2.2,0.1,4.1,0.6,5.8,1.5   c1.7,0.9,2.8,2.4,3.2,4.4c0.7,3.5-0.5,6.3-3.5,8.2c-1.6,1-3.6,1.8-6.1,2.3L222.6,52L222.4,51.1z M236.2,31.4c1.7-1.2,2.4-3,1.9-5.3   c-0.5-2.7-2-4.3-4.4-4.8c-1.3-0.3-3.2-0.2-5.7,0.3c-0.9,0.2-1.5,0.4-1.7,0.6c-0.2,0.2-0.2,0.7-0.1,1.4l2,10.2l4.3-0.9   C234.1,32.6,235.3,32.1,236.2,31.4"/>
	<path class="st0" d="M255,44.9c1.7-0.4,2.7-0.8,3.1-1.3c0.4-0.5,0.6-1.6,0.4-3.3L256,20c-0.2-1.6-0.6-2.7-1.1-3.1   c-0.5-0.4-1.7-0.6-3.4-0.5l-0.1-0.8l12.9-1.6l0.1,0.8c-1.7,0.3-2.8,0.7-3.3,1.2c-0.5,0.5-0.7,1.6-0.5,3.1l2.7,21.9   c0.1,0.5,0.2,0.9,0.4,1.2c0.2,0.3,0.6,0.4,1.2,0.4c0.3,0,0.7,0,1.1,0c0.4,0,1.1-0.1,2.1-0.2c4-0.5,6.8-1.2,8.1-2   c1.3-0.8,2.5-2.7,3.5-5.6l1.2-0.1l-1.3,8.2l-24.6,3L255,44.9z"/>
	<path class="st0" d="M285.9,41.4c1.9-0.2,3.1-0.6,3.6-1c0.5-0.5,0.7-1.6,0.7-3.4L289,16.6c-0.1-1.7-0.4-2.8-1-3.2   c-0.6-0.5-1.8-0.7-3.7-0.7l0-0.9l13.6-0.7l0,0.8c-1.9,0.2-3.1,0.5-3.6,1.1c-0.5,0.5-0.7,1.6-0.7,3.3l1.1,20.4   c0.1,1.8,0.4,2.9,1,3.3c0.6,0.4,1.8,0.6,3.7,0.6l0.1,0.8l-13.6,0.7L285.9,41.4z"/>
	<path class="st0" d="M306,32c0.8,2.1,1.7,3.7,2.7,4.9c1.8,2.2,4.1,3.2,6.8,3.2c1.5,0,2.7-0.5,3.8-1.4c1.1-0.9,1.6-2.2,1.6-3.9   c0-1.5-0.5-2.8-1.6-3.9c-0.7-0.7-2.2-1.8-4.4-3.2l-3.9-2.4c-1.2-0.7-2.1-1.5-2.8-2.3c-1.3-1.4-2-3-2-4.8c0-2.3,0.8-4.3,2.3-5.8   c1.5-1.5,3.6-2.3,6.1-2.3c1,0,2.3,0.3,3.8,0.8c1.5,0.5,2.3,0.8,2.5,0.8c0.6,0,1-0.1,1.2-0.4c0.2-0.3,0.4-0.7,0.5-1.1h0.9l1,9.8   h-1.1c-0.8-2.9-2-5-3.6-6.2c-1.6-1.2-3.3-1.8-4.9-1.8c-1.3,0-2.4,0.4-3.3,1.1c-0.9,0.7-1.4,1.8-1.4,3.1c0,1.2,0.4,2.2,1.1,3   c0.7,0.9,1.8,1.7,3.3,2.7l4,2.5c2.5,1.6,4.3,3,5.3,4.3c1,1.3,1.5,2.9,1.5,4.7c0,2.4-0.9,4.4-2.7,6c-1.8,1.6-4.1,2.4-7,2.4   c-1.4,0-2.9-0.3-4.5-0.8c-1.5-0.5-2.4-0.8-2.6-0.8c-0.5,0-0.9,0.2-1.1,0.5c-0.2,0.3-0.3,0.7-0.4,1.1h-1l-1.4-9.8H306z"/>
	<path class="st0" d="M332.3,40.3c1.8,0,3-0.3,3.4-0.7c0.5-0.5,0.8-1.6,1-3.6l1.7-19.8c0.1-1.6,0-2.7-0.5-3.3   c-0.5-0.5-1.5-0.9-3.2-1.2l0.1-0.8l12.7,1.1l-0.1,0.8c-1.7,0-2.8,0.2-3.4,0.6c-0.6,0.5-0.9,1.5-1,3.1l-0.8,8.9l13.9,1.2l0.8-8.9   c0.1-1.6,0-2.7-0.5-3.3c-0.4-0.5-1.5-0.9-3.2-1.2l0.1-0.9l12.7,1.1l-0.1,0.8c-1.7,0-2.8,0.2-3.4,0.6c-0.5,0.4-0.9,1.5-1,3.1   l-1.8,20.4c-0.1,1.7,0,2.8,0.5,3.3c0.5,0.5,1.5,0.9,3.2,1.2l-0.1,0.8l-12.7-1.1l0.1-0.8c1.8,0,3-0.2,3.5-0.7c0.5-0.4,0.8-1.6,1-3.6   l0.8-8.9l-13.9-1.2l-0.8,9.4c-0.1,1.7,0,2.8,0.5,3.3c0.5,0.5,1.5,0.9,3.2,1.2l-0.1,0.8l-12.7-1.1L332.3,40.3z"/>
	<path class="st0" d="M367.9,43.3c1.7,0.1,2.8,0,3.4-0.4c0.6-0.3,1-1.4,1.3-3.1l3.2-20.2c0.3-1.6,0.2-2.7-0.2-3.3   c-0.4-0.6-1.4-1.1-3.1-1.4l0.1-0.8l24.1,3.8l-0.9,6.5l-1.2-0.2c-0.1-2.1-0.4-3.5-1.1-4.2c-0.7-0.7-2.3-1.3-5-1.7l-6.2-1   c-0.7-0.1-1.1-0.1-1.3,0.1c-0.2,0.2-0.3,0.6-0.4,1.2L379,28.9l7,1.1c1.9,0.3,3.2,0.2,3.8-0.3c0.6-0.5,1.2-1.6,1.8-3.3l1.1,0.2   l-1.7,10.5l-1.1-0.2c-0.1-1.8-0.3-3-0.8-3.7c-0.5-0.7-1.6-1.1-3.5-1.4l-7-1.1L377,41.9c-0.1,0.9,0.1,1.5,0.6,1.7   c0.5,0.3,2.2,0.6,5.1,1.1c3.1,0.5,5.4,0.5,7,0.1c1.6-0.4,3.1-1.9,4.7-4.3l1.3,0.2l-3.3,7.3l-24.6-3.9L367.9,43.3z"/>
	<path class="st0" d="M407.9,49.2c0.3,0.3,1,0.6,2.1,0.9c3.5,0.8,6.5,0.8,9.1-0.1c4-1.3,6.5-4.6,7.7-9.7c1.1-4.6,0.4-8.4-1.9-11.4   c-2-2.5-5-4.3-9.1-5.2c-1-0.2-1.7-0.3-2.1-0.2c-0.4,0.1-0.7,0.6-0.9,1.3l-5.2,22.8C407.5,48.3,407.6,48.9,407.9,49.2 M398.6,48.3   c1.7,0.2,2.8,0.2,3.4-0.1c0.6-0.3,1.1-1.3,1.5-3l4.6-19.9c0.4-1.6,0.4-2.7,0-3.3c-0.4-0.6-1.4-1.1-3-1.6l0.2-0.8l12.1,2.8   c4.1,0.9,7.4,2.4,9.9,4.4c4.5,3.6,6.1,8.5,4.6,14.7c-0.5,2.2-1.5,4.2-2.8,6c-1.4,1.8-3.1,3.2-5.3,4.1c-1.4,0.6-2.7,1-4.1,1.2   c-2.5,0.3-5.4,0.1-8.7-0.7l-12.5-2.9L398.6,48.3z"/>
	<path class="st0" d="M447.2,61.8c7-3.6,11.9-6.3,14.6-8.2c2.7-1.9,4.5-4,5.3-6.4c0.7-2.1,0.7-3.9-0.1-5.4c-0.7-1.5-1.9-2.5-3.5-3.1   c-1.9-0.7-3.7-0.5-5.4,0.5c-0.9,0.5-2,1.5-3.1,2.9l-0.9-0.5c1.8-3,3.8-4.9,5.9-5.5c2.1-0.7,4.2-0.7,6.1,0c2.4,0.8,4.1,2.3,5,4.3   c1,2,1.1,4.1,0.3,6.3c-0.8,2.3-2.4,4.3-4.7,5.9c-2.3,1.6-7.1,4.2-14.4,7.9l9.8,3.4c1.4,0.5,2.4,0.6,3,0.5c0.7-0.1,1.6-0.7,2.7-1.7   l0.5,0.4l-4.4,5.1l-17-5.9L447.2,61.8z"/>
	<path class="st0" d="M486.1,72.9c1.7-1.9,3.5-4.9,5.4-9.1c1.5-3.3,2.4-6.1,2.9-8.3c0.8-4.1,0-6.6-2.3-7.7c-2.3-1-4.8,0.2-7.3,3.6   c-1.4,1.8-2.8,4.4-4.2,7.7c-1.4,3.1-2.3,5.7-2.6,7.7c-0.7,3.9,0.2,6.3,2.6,7.4C482.5,75.2,484.4,74.7,486.1,72.9 M497.8,55.1   c0.2,3.3-0.5,6.6-2,10.1c-1.2,2.7-2.8,5.1-4.7,7.1c-3.6,3.8-7.4,4.8-11.3,3.1c-2.7-1.2-4.4-3.4-5-6.6c-0.7-3.4,0-7.4,1.9-11.9   c1.6-3.5,3.5-6.3,5.9-8.3c3.2-2.7,6.6-3.3,10.1-1.7C495.8,48.2,497.5,51,497.8,55.1"/>
	<path class="st0" d="M509.2,83.7c1.8-1.8,3.7-4.8,5.7-8.9c1.6-3.3,2.6-6,3.1-8.1c0.9-4,0.3-6.6-2-7.7c-2.3-1.1-4.8,0-7.4,3.3   c-1.4,1.8-2.9,4.3-4.5,7.5c-1.5,3.1-2.4,5.6-2.9,7.6c-0.8,3.9,0,6.3,2.3,7.5C505.5,85.9,507.4,85.5,509.2,83.7 M521.5,66.3   c0.1,3.3-0.7,6.6-2.4,10c-1.3,2.7-3,5-4.9,7c-3.7,3.7-7.5,4.6-11.4,2.7c-2.7-1.3-4.2-3.6-4.8-6.8c-0.6-3.5,0.2-7.4,2.4-11.8   c1.7-3.5,3.8-6.2,6.2-8.1c3.3-2.6,6.7-3.1,10.1-1.4C519.8,59.4,521.4,62.2,521.5,66.3"/>
	<path class="st0" d="M543.9,73.4c0,0,0,0.1-0.1,0.2l-13.9,23.2c-0.6,1-0.7,1.8-0.4,2.4c0.4,0.6,1.2,1.3,2.7,2.3l-0.3,0.5L521,95.4   l0.3-0.6c1.6,0.9,2.7,1.2,3.4,1.2c0.7-0.1,1.4-0.7,2.1-1.8l10.7-17.8c0.4-0.6,0.6-1.1,0.6-1.5c0-0.4-0.2-0.8-0.7-1.1   c-0.3-0.2-0.8-0.4-1.5-0.5c-0.6-0.1-1.3-0.2-1.8-0.3l0.3-0.5l9.2,0.7l0.2,0.1C543.9,73.3,543.9,73.4,543.9,73.4"/>
	<path class="st0" d="M299.4,246.1c-0.1,1.8-2.1,13,0.2,12.5c2-0.5,1.6-3.7,2.8-4.7c0.7,1.1,0.8,3,0.3,4.2c-2.3,1.7-2.9,5.8-0.7,5.2   c4.1-1.2,5.3-14,1.5-5.9C303.7,256,301.8,241.7,299.4,246.1 M277.4,238.1c1.1,0.1,2.2,0.2,3.3,0.5c0.6,0.4,1,1.3,0.9,2   c-0.5,0.6-0.7,1.6-0.7,2.4c0.4,0.7,1.1,1.3,1.7,1.8c1.9,0.2,3.4-0.8,4.4-2.4l-1.6,0.4c-1.3,0.4-0.7-3.3-0.9-4.2   c-0.6-2.6-2.9-3.3-5.3-2.8C278.3,236.2,277.7,237.3,277.4,238.1 M269.2,255.1c0.6-0.7,1.7-1.8,2-2.6c0.3-0.6-1.1-1.4-1.5-1.4   c-3.9-0.2-5.5,2.6-2.2,3.7L269.2,255.1z M264.8,235.4c-0.8,0.5-1.5,1.3-2.1,2.1l-0.2,1.7l0.6,1.3c0.9,0.7,2.1,1,3.2,0.9l1.1-0.9   C269.1,238,266.6,236.4,264.8,235.4 M264.4,232.6l-0.7,2.1l1.2,0.7L264.4,232.6z M284.4,263.2c-4.5,4.9,2.5,1.4-9.9,10.2l-1.3-0.6   c-1.5,0.7-4.4,2.8-5,4.3v1.1c0.5,0.7,1.3,1.4,2.2,1.7c2.2,1.3-1.8,2-2.6,1.9c-1.5-1.1-4.5-9.6-3.5-11c2.5-1.2,9.1-1.1,9.1-5   c-1.7-5.4-8.9,1.5-11,2.8h-1.1l-1.1-0.9c-0.3-1.8-1.6-3-2.4-4.6c-7.4-1.1,4.7-19.6,5.4-20.1c-5-5-3.6-6.1,1.1-10.8l0.1,0.3l1.2-2.3   c0.8-1.6,0.1-2.7,2.1-3.7c1.1-0.5,3.5,0.7,4.7,0.9c0.3-0.7,0.5-1.5,0.5-2.3c3.7-4.8,5.9,0,7.5-0.9c3.8-2.2,3.7-3,8.6-1.7   c0.8,0.2,10.1,4.1,6.1,5.1c-0.8,0.2-1.9,0-2.6,0.4c-1.2,0.6-0.3,2.7,1.1,2.4c1.6-0.3,2.9-1.3,5.1-1.6c5.3,2.1-2.3,5.9-0.3,7.4   c0.9,0.7,3.3-2.5,4.4-2.3c2.2,0.4,10.3,13.5,11.1,16.3c5.2,3.6,10.1,14.7,4.3,13.7c-4.2,2.2-5.5,8.4-9.2,11.7   c-2.6-1.6-3.6-8.4-7.1-4.6l-2.3,2.6c-1.7,1.7-3.4,3.8-5.2,5.4c-0.2,0.9,0.4,2.3-0.4,2.7l-0.6-0.5c-3.2-8.5,3.6-11-0.9-15.4   c-4.2-0.6-3.5,13-4.1,14.8C283.9,276.1,290.3,258.9,284.4,263.2"/>
	<path class="st0" d="M239.6,278.7c1.5-0.4,4.8-1.3,6.3-0.9c2.2,0.7,5.2,3.2,7.5,4.3c10.7,5,21,4.2,31.9,0.2   c1.9,1.3,12.6,5.9,14.5,4.5c1.3-1.2-0.6-3.3-1.5-4.1l7.8-8.7l0.9,1.3c-0.2,2.4-2,4.2-2.6,6.5c10.9,3.4,12.6-17.6,27.2-19   c6.5,4.5,19.1-5.2,26.2-5.4c10.5-0.3,45.8,18.7,42.6-6c-3.5-27.5-69,18.5-72.6-14.7c-1.4-13,21-13.8,29.4-15.1   c9.3-1.5,11.3-6.6,21.8-4.3c2.5,0.5,6.2,2.3,4.5,5.4c6-5.6,18,3.4,9.3,11.9c0.9-1.8,1.1-4,0.2-5.8c-2.7-1-5.8,1.8-7.6,3.5   c-2.3,0.2-4.6-0.6-6.9-0.4c-0.7-1.2-2.1-2.5-3.7-2.2c-0.5,0.8-0.9,1.8-1.5,2.6c-3.2,4.3-10.2-4.6-13-5.8   c-5.9-2.7-24.9,0.2-26.4,7.8c-4.6,23.5,48.8-2.2,64.2,6.7c9.9,5.7,11,25.1-1.3,28.8c-4.9,1.5-10.2,0.3-15.1-0.2   c-1,1.9-0.5,3.8-0.6,5.8c-0.2,2.8-2.5,7.1-1.3,9.7c1.8,3.8,13.4,9.6,13.8,11.7c0.7,3.6-5.2,12-5.6,17.1c-0.2,2.9,1.4,10.6-1.9,11.9   c-5.1-0.6-11.2,1.3-15.8,3.5c1.1-2.1,2-4.5,1.7-6.9l-1.3-0.4l-1.1,0.7c-2.5,7.5-4.3,3.4-8.4,6.9c0.7-2.2,1.3-7.5,0.9-9.7   c-2.6,1.6-4.2,4.3-6.5,6.3c-2.5-21.1,14.5-8.9,20.3-11.9c12.2-6.2-14.5-13.8-14.7-14c-4.4-5.4-4.4-17.3-13.6-17.9   c-18.5-1.3-20.1,34.7-51.4,17.5c1.6-1.2,3-2.9,3.7-4.8c-4.2-1.2-13.8,6.7-19.2,7.1c-6.3,0.6-12.2-4.6-18.2-3.5   c-5.5,1-4.9,6.5-8.2,9.7l0.4-2.8l-0.9-1.5c-3-0.9-5.9,1.1-8.4,2.6l-1.9-0.7c1.8-0.9,3-2.5,3.9-4.3c-3.6-1.8-9.5-0.5-11.2-1.5   c5.4-2.4,5.9-8,0.4-10.8c3.1-0.5,5.1-3.5,7.1-5.6C243.4,281.3,241.4,279.7,239.6,278.7"/>
	<path class="st0" d="M290,301l1.9,1.3l1.9,1.1l1.9,0.6l2,0.4l3.2,0.7l-1.7,2.8l-2.6,3l-2.6,4.8l-1.5,3.2l-1.5,2.6l-1.5,2.2   l-1.5,1.5l-2.2,0.9l-1.7,1.1l-1.5,1.1l-0.2-1.5l-1.7-0.2l-1.5,0.2l-1.7,0.4l-1.7,1.3l-1.1,1.3l-1.3-1.3l-1.3-0.9l-1.3,0.2l-1.9,0.9   l-1.1,0.7l-0.4-3.2l0.2-1.9l0.6-1.7l1.5-1.5v-1.3c-0.9-0.6-2.4,0.2-2.4,0.2l-2.2,2.4l-1.5,1.9l-1.5,1.7l1.1-5.6l1.1-2.8l1.1-2.4   l1.3-1.7l1.5-0.6l1.9-0.2l2,0.4l2.2,0.4h2.2l3-0.4l1.5-1.3l0.7-1.9l0.4-1.7l0.7-2.2l2.4-1.7l2.4-1.5L290,301z"/>
	<polygon class="st0" points="343.2,284.8 345.6,285 347.5,285.9 349,287.2 350.7,289.6 352.5,292.6 353.5,294.7 354,297.5    355.3,300.1 355.1,302.1 353.3,304.2 351.2,307.3 349.7,310.1 348.1,313.3 347.3,316.4 346.2,319.4 344.9,321.5 344.5,323    343.2,324.1 341.2,324.8 339.7,324.1 336.7,324.1 333.9,324.3 331.7,324.3 329.8,325.2 328.5,326.5 326.1,328.9 325.7,326.9    323.7,325.4 322.2,324.3 321.1,325 319,325.9 319.8,323.7 319.4,322.2 317.5,321.5 315.7,322.4 315.7,320 316.8,318.7 318.1,318.1    318.1,317 317.7,315.7 319,314.2 321.1,311.8 322.9,310.7 324.8,310.1 327.4,310.1 331.5,310.7 334.5,311.2 336.5,310.9    338.9,310.3 340.6,309.2 341.7,307.3 341.9,305.3 341.4,303.4 340.6,301.2 339.1,299.1 337.5,296.5 336.8,294.2 336.5,292.4    336.5,290.2 337.1,288 338.9,286.3 340.9,285.4  "/>
	<polygon class="st0" points="263.9,232.8 265,231.4 265.8,235.7 265,235.3 263.4,235.7  "/>
	<polygon class="st0" points="274.2,275.6 276.4,274.8 278.5,274.1 281.1,273 281.5,274.5 281.5,276.1 282,277.6 282.6,278.7    279.8,279.7 277.4,280.4 275.3,281.3 274,280.4 274.2,278.7 274,276.7  "/>
	<polygon class="st0" points="266,252.7 266.5,253.4 267.1,253.9 267.3,254.4 267.9,255.1 268.1,255.4 268.7,255 269.3,254.3    270,253.8 270.7,253.4 271.7,252.8 271.9,252.5 271.7,252.2 270.9,251.4 270.3,250.9 268.9,251.1 267.7,251.4 267,251.6    266.3,251.7 265.8,251.7 264.8,251.3 268,250.2 271.9,249.9 273.8,253.2 269.6,256 265.9,257.3 263,251.1 264.6,251.7 265.8,252     "/>
	<path class="st0" d="M388.4,138.3c-1.2-3.9-2.5-6.6-4.9-9.7c-4.2-5.5-8.2-8.8-15-11.9c-6-2.8-13.3-3.8-21.8-3.8c-1.1,0-2.3,0-3.5,0   c-8.6,0-26.6,1.6-29.4,2c-1.5,0.2-2.2,0.6-2.2,1.5c0,1.9,0.2,2.5,1.3,2.5c0,0,2.5,0,3.9,0c1.4,0.1,3.6,1.1,3.8,2.8   c0.8,11.5,0.5,50.7,0.2,53.6c-0.1,4-2.8,5.8-7.2,6.4c-1.9,0.1-2.3,0.5-2.3,2.1c0,1.6,0.3,1.8,1.5,1.8h26.4h7.1h2.1   c0.4,0,0.7,0,1.1,0c4.4,0,9.4-0.5,13.5-1.7c2.9-0.8,4.1-1.3,8.7-3.8c3.6-2,4.3-2.4,7.5-5.1c7.4-6.2,11.1-14.8,11.1-26   C390.3,146.7,389.4,141.2,388.4,138.3 M338.4,177.4c-1.6-1.5-3.8-4.6-3.8-9.6c0-0.5-0.4-41-0.4-41c-0.1-6.4,3.5-8.9,11.4-9.2   c11.1,0.1,20,5.8,24.8,17.2c1.2,2.9,2.5,10.6,2.5,14.9c0,3.8-0.1,4.3-1,9.7c-0.4,2.2-2.6,7.7-3.9,9.5c-5.1,7.4-10.7,11.7-18.1,12.3   C343,181.2,340.6,179.4,338.4,177.4"/>
	<path class="st0" d="M472.5,132.3c-2.7-5.4-8.4-11-14.2-14.5c-4.2-2.5-11.6-4.4-17.8-4.8c-1.9-0.1-3.7-0.1-5.4,0   c-3.5,0-6.7,0.4-9.6,1.2c-3.2,1-8.2,3.3-11.1,5.3c-2.4,1.6-7.8,6.9-9.3,9.1c-3.9,5.7-6.2,12.3-6.7,19.3c-0.2,3.6,0.1,7.5,1.1,10.6   c1.7,5.8,3.1,8.5,6.9,13.2c6.3,7.9,16.3,13.1,26.6,13.7c1.3,0.1,2.6,0.1,4,0c9,0,19.5-3.6,25.6-8.9c4.3-3.7,6.1-5.5,7.8-7.9   c3.9-5.3,6.3-11.8,6.7-18C477.4,145,476,138.9,472.5,132.3 M437.8,180.9c-6.1-0.4-10.8-2.8-15.1-7.7c-3.6-4.1-6-9.3-7.2-15.2   c-1.1-6.1-1.3-8.6-0.9-14.5c0.2-3.3,1.4-8.7,2.5-11.6c2.2-5.3,5.7-9.5,9.9-11.7c3.6-1.8,6.9-2.7,10.2-3c0.3,0,0.7,0,1,0   c4.8,0.3,9.1,2.1,12.8,5.6c4.9,4.4,8.4,11.4,9.5,18.5c0.7,5.3,0.9,8.4,0.6,13.3c-0.3,4.5-1.5,9.5-3,12.4c-3.5,6.4-5.7,8.7-12.1,12   c-2.1,1-4.4,1.7-7,1.8C438.5,180.9,438.2,180.9,437.8,180.9"/>
	<path class="st0" d="M207.7,132.3c-2.7-5.4-8.4-11-14.2-14.5c-4.2-2.5-11.6-4.4-17.8-4.8c-1.9-0.1-3.7-0.1-5.4,0   c-3.5,0-6.7,0.4-9.6,1.2c-3.2,1-8.2,3.3-11.1,5.3c-2.4,1.6-7.8,6.9-9.3,9.1c-3.9,5.7-6.2,12.3-6.7,19.3c-0.2,3.6,0.1,7.5,1.1,10.6   c1.7,5.8,3.1,8.5,6.9,13.2c6.3,7.9,16.3,13.1,26.6,13.7c1.3,0.1,2.6,0.1,4,0c9,0,19.5-3.6,25.6-8.9c4.3-3.7,6.1-5.5,7.8-7.9   c3.9-5.3,6.3-11.8,6.7-18C212.5,145,211.1,138.9,207.7,132.3 M172.9,180.9c-6.1-0.4-10.8-2.8-15.1-7.7c-3.6-4.1-6-9.3-7.2-15.2   c-1.1-6.1-1.3-8.6-0.9-14.5c0.2-3.3,1.4-8.7,2.5-11.6c2.2-5.3,5.7-9.5,9.9-11.7c3.6-1.8,6.9-2.7,10.2-3c0.3,0,0.7,0,1,0   c4.8,0.3,9.1,2.1,12.8,5.6c4.9,4.4,8.4,11.4,9.5,18.5c0.7,5.3,0.9,8.4,0.6,13.3c-0.3,4.5-1.5,9.5-3,12.4c-3.5,6.4-5.8,8.7-12.1,12   c-2.1,1-4.4,1.7-7,1.8C173.6,180.9,173.3,180.9,172.9,180.9"/>
	<path class="st0" d="M568,112.9c0,0-22.4,0-23.1,0c-1.5,0-2.1-0.1-2.1,1.8c0,1.9,0.3,2.1,3,2.1c2.1,0,4.4,1.1,5.3,2.4   c0.8,1.3,1.2,3.9,1.2,7.5c0,2.8-0.2,33.5-0.2,33.8c-0.4-0.5-34.3-40.6-37.2-44.1c-3.4-4.2-4-3.4-5.4-3.5c-0.2,0-23.7,0-23.7,0   c-1.4,0-1.8,0.1-1.8,2.3c0,1.2,0.6,1.5,2.3,1.6c2.1,0,4.3,0.5,6.1,1.5c2.5,1.3,3.3,2.9,3.5,6.7c0.4,5.7-0.3,51.1-0.5,52.1   c-0.6,2.3-3.2,3.7-7,3.7c-2,0-2.4,0.4-2.4,2.4c0,1.4,0.1,2.3,2.2,2.3c0,0,24.1,0,24.8,0c1.7,0,2.1-0.5,2.1-3.1   c0-1.1-0.6-1.5-2.1-1.7c-7-0.5-7.9-1.5-8-8.8c0.3-13,0.4-41.3,0.4-42.1c0.1,0.2,46.5,53.7,46.8,54.2c1.4,1.5,0.9,1.4,3.6,1.4   c0.8,0,2.5,0,3.1,0c2.1,0,2.3-0.1,2.3-1.3v-58.7c0.3-6.7,1.2-8.1,5.9-8.4c3.4-0.4,3.5-0.2,3.4-1.8   C570.6,113.1,570.8,112.9,568,112.9"/>
	<path class="st0" d="M303.1,112.9c0,0-22.4,0-23.1,0c-1.5,0-2.1-0.1-2.1,1.8c0,1.9,0.3,2.1,3,2.1c2.1,0,4.4,1.1,5.3,2.4   c0.8,1.3,1.2,3.9,1.2,7.5c0,2.8-0.2,33.5-0.2,33.8c-0.4-0.5-34.3-40.6-37.2-44.1c-3.4-4.2-4-3.4-5.4-3.5c-0.2,0-23.7,0-23.7,0   c-1.4,0-1.8,0.1-1.8,2.3c0,1.2,0.6,1.5,2.3,1.6c2.1,0,4.3,0.5,6.1,1.5c2.5,1.3,3.3,2.9,3.5,6.7c0.4,5.7-0.3,51.1-0.5,52.1   c-0.6,2.3-3.2,3.7-7,3.7c-2,0-2.4,0.4-2.4,2.4c0,1.4,0.1,2.3,2.2,2.3c0,0,24.1,0,24.8,0c1.7,0,2.1-0.5,2.1-3.1   c0-1.1-0.6-1.5-2.1-1.7c-7-0.5-7.9-1.5-8-8.8c0.3-13,0.4-41.3,0.4-42.1c0.1,0.2,46.5,53.7,46.8,54.2c1.4,1.5,0.9,1.4,3.6,1.4   c0.8,0,2.5,0,3.1,0c2.1,0,2.3-0.1,2.3-1.3v-58.7c0.3-6.7,1.2-8.1,5.9-8.4c3.4-0.4,3.5-0.2,3.4-1.8   C305.6,113.1,305.8,112.9,303.1,112.9"/>
	<path class="st0" d="M128.2,168c-0.9,0-2.3,0-3.5,0c-1.3,0-1.7,0.4-2.7,2.6c-0.5,1.2-4.3,6.2-5.6,7.2c-1.3,1.2-5,2-9.8,2.2   c-2-0.1-4-0.3-5.6-0.7c-3.7-0.9-4.7-2.4-5.8-5.5c-0.9-2.4-0.8-49.1-0.8-50.2c-0.2-5.9,1.9-6.3,6.7-6.4c0.2,0,0.3,0,0.5-0.1   c2.3,0,2.5-0.4,2.5-1.3c0-0.1,0-0.3,0-1.5c0-1.2-0.5-1.4-3-1.4l0,0c0,0,0,0,0,0c-0.4,0-28.2,0-29,0c-2.4,0-3,0.2-3,1.4   c0,1.2,0,1.4,0,1.5c0,1,0.2,1.3,2.9,1.3c4.9,0.2,6.5,1.3,6.3,6.7c-0.1,2.2,0.2,49.7,0.2,49.7c-0.6,6.2-1.4,7.3-6.6,7.8   c-0.2,0-0.4-0.1-0.6,0c-1.8,0-2.2,0.3-2.2,1.4c0,1.2,0,1.4,0,1.5c0,1,0.2,1.3,2.9,1.3v0c0.3,0,0.7,0,1.2,0h50c0.7,0,0.9,0,1.3,0   c1.8,0,2.6-1.4,3.6-6l2.2-9.1c0.1-0.3,0.2-0.8,0.3-0.9C131.1,168.1,129.8,168,128.2,168"/>
</g>
</svg>