<?xml version="1.0" encoding="UTF-8"?>
<svg id="Layer_1" data-name="Layer 1" xmlns="http://www.w3.org/2000/svg" viewBox="0 0 853.61 196.55">
  <defs>
    <style>
      .cls-1 {
        fill: #f24594;
      }
    </style>
  </defs>
  <path class="cls-1" d="m439.21,196.54c.07-1.03.21-2.06.21-3.08.02-9.41-.04-18.83.07-28.24.01-1.21.52-2.72,1.34-3.57,14.25-14.62,22.95-32.03,25.29-52.22,3.25-28.1-4.81-52.78-24.22-73.56-1.68-1.8-2.57-3.56-2.53-6.1.15-8.77.06-17.55.06-26.33q0-3.44,3.36-3.44h406.84q3.79,0,3.79,3.75c0,9.01-.03,18.03.03,27.04.01,1.72-.47,2.97-1.69,4.23-13.69,14.02-22.17,30.71-24.77,50.14-3.93,29.34,4.52,54.76,24.82,76.32.87.93,1.53,2.47,1.55,3.73.13,9.41.07,18.83.08,28.24,0,1.03.11,2.06.17,3.1-138.14-.01-276.27-.01-414.4-.01Zm107.36-74.45h3.02c18.46,0,36.93-.03,55.39.04,2.01,0,2.98-.48,2.83-2.66-.39-5.55-.18-11.19-1.11-16.65-1.82-10.75-6.51-20.17-15.2-27.16-8.3-6.67-17.98-8.96-28.46-8.65-12.87.39-23.58,5.41-31.77,15.26-9.13,10.99-11.97,23.83-10.36,37.86,1.15,10.01,5.11,18.67,12.07,25.97,13.94,14.63,38.86,17.07,56.04,8.59,5.73-2.83,10.55-6.81,14.67-12.14-4.48-3.96-8.87-7.77-13.16-11.68-1.36-1.24-2.34-1.18-3.65.03-6.41,5.95-14.03,8.17-22.7,7.51-8.49-.65-16.06-7.33-17.61-16.32Zm106.42-55.06c-.64,0-1.28,0-1.92,0-13.45-.29-29.86,7.93-31.03,26.14-.57,8.87,1.94,16.37,9.2,21.87,4.84,3.67,10.47,5.7,16.2,7.52,5.16,1.64,10.33,3.31,15.34,5.35,3.12,1.27,4.02,3.27,3.61,6.04-.41,2.79-2.49,3.88-4.9,4.61-3.54,1.07-7.1.72-10.64.06-7.43-1.39-14.08-4.62-20.23-8.89-1.53-1.06-2.42-.99-3.44.63-2.78,4.47-5.65,8.89-8.56,13.27-.96,1.45-1.03,2.42.53,3.54,14.39,10.28,30.26,14.67,47.74,11.16,18.45-3.71,25.4-17.7,22.44-34.04-1.34-7.38-6.46-12.3-12.94-15.39-6.38-3.05-13.18-5.22-19.74-7.91-3.08-1.27-6.27-2.51-8.98-4.38-3.5-2.41-2.79-7.07,1.27-8.38,2.56-.83,5.51-1.11,8.18-.8,6.83.79,13.04,3.59,18.95,7.01,1.56.9,2.44.89,3.36-.88,2.46-4.74,5.04-9.43,7.72-14.05,1.03-1.77.55-2.61-1.06-3.57-9.59-5.7-19.83-9.07-31.1-8.91Zm80.56-.21c-2.7.23-5.42.28-8.08.72-13.93,2.32-26.31,12.48-24.67,30.89.6,6.78,3.46,12.15,8.75,16.33,4.85,3.84,10.56,5.87,16.35,7.76,5.23,1.7,10.46,3.42,15.58,5.41,2.56,1,4.02,3.09,3.52,6.1-.47,2.82-2.55,4.21-4.98,4.47-3.51.37-7.16.56-10.63.01-7.46-1.17-14.09-4.56-20.25-8.82-1.25-.86-2.12-1.18-3.1.38-2.97,4.73-6.02,9.41-9.08,14.08-.78,1.19-.58,1.97.55,2.78,15.01,10.83,31.54,15.35,49.76,10.93,17.52-4.24,23.52-18.03,20.64-33.73-1.41-7.67-6.92-12.55-13.65-15.67-6.49-3.01-13.36-5.21-20.03-7.87-2.58-1.03-5.12-2.22-7.54-3.59-1.74-.98-2.78-2.6-2.48-4.8.31-2.27,1.73-3.75,3.76-4.18,2.53-.53,5.22-.92,7.76-.63,6.68.77,12.72,3.55,18.56,6.74,2.64,1.44,2.64,1.46,4.12-1.24,2.45-4.48,4.83-9,7.38-13.42.95-1.64.66-2.48-.91-3.43-9.63-5.84-19.97-9.12-31.33-9.22Zm-225.51-29.96c-7.92,0-15.42.09-22.91-.05-2.38-.05-2.98.79-2.96,3.02.09,10.29.04,20.57.04,30.86v84.93c0,3.33.02,3.33,3.31,3.34h19.41c3.11,0,3.11-.01,3.11-3.13V40.04c0-.94,0-1.88,0-3.18Zm285.39-16.26v-.12c-4.31,0-8.62.09-12.92-.05-1.45-.05-1.88.49-1.88,1.73-.03,8.76-.08,17.53,0,26.29.01.6.98,1.71,1.53,1.72,8.76.26,17.53.38,26.3.55,1.31.03,1.83-.5,1.84-1.83.12-8.67.26-17.35.48-26.02.05-1.84-.74-2.32-2.42-2.3-4.31.08-8.62.03-12.93.03Zm-13.86,74.2h-.07c0,4.22.06,8.45-.03,12.67-.04,1.67.52,2.22,2.19,2.2,5.03-.08,10.06-.07,15.09,0,3.42.05,6.84.27,10.26.38,1.21.04,2.2-.17,2.23-1.77.13-8.75.29-17.51.46-26.26.03-1.35-.41-2.04-1.91-2.06-8.61-.1-17.22-.23-25.83-.43-1.78-.04-2.43.66-2.41,2.37.05,4.3.02,8.6.02,12.91Zm13.54,74.19v.02c4.31,0,8.62-.05,12.92.03,1.54.03,2.19-.54,2.19-2.05,0-8.68.05-17.36-.02-26.04,0-.54-.93-1.52-1.45-1.53-8.76-.25-17.53-.37-26.29-.55-1.24-.02-1.91.33-1.93,1.74-.12,8.67-.27,17.34-.47,26.01-.04,1.73.59,2.43,2.36,2.4,4.23-.08,8.46-.03,12.69-.03Z"/>
  <path class="cls-1" d="m235.57,119.84c.64-.56,1.31-1.08,1.9-1.69,14.41-14.93,28.84-29.85,43.19-44.84,1.73-1.81,3.47-2.74,6.04-2.58,3.5.22,7.02.06,11.1.06-.82.93-1.32,1.56-1.88,2.13-11.04,11.2-22.07,22.41-33.17,33.55-1.53,1.53-1.74,2.51-.33,4.35,11.04,14.36,21.96,28.81,32.91,43.24.51.68.99,1.38,1.81,2.52-4.79,0-9.06.08-13.33-.08-.75-.03-1.61-.96-2.16-1.67-9.13-11.81-18.21-23.64-27.31-35.47-.52-.68-1.12-1.3-1.84-2.12-.9.83-1.67,1.49-2.39,2.21-4.46,4.46-8.86,8.98-13.38,13.38-1.42,1.38-2.08,2.83-2.04,4.83.11,5.5-.02,11.01.07,16.51.03,1.87-.58,2.59-2.48,2.49-2.39-.12-4.79-.07-7.19-.02-1.41.03-2.11-.49-2.01-1.95.03-.48,0-.96,0-1.44V40.77c0-3.42,0-3.43,3.39-3.43,1.92,0,3.84.09,5.75-.03,1.83-.11,2.61.5,2.53,2.43-.12,3.11-.03,6.22-.03,9.33,0,22.42,0,44.83.01,67.25,0,1.08.1,2.15.15,3.23.23.1.46.19.69.29Z"/>
  <path class="cls-1" d="m370.78,143.12c-6.77,7.62-14.63,12.85-24.45,14.6-12.68,2.27-24.71.73-35.26-7.27-9.89-7.5-15.12-17.64-16.51-29.9-1.39-12.23,1.07-23.52,8.32-33.52,7.36-10.16,17.4-15.66,30.07-16.23,21.76-.98,35.93,13.2,39.8,32.57.8,4.03.68,8.23,1.11,12.34.25,2.39-.57,3.16-3.05,3.14-16.63-.1-33.25-.05-49.88-.05-4,0-7.99.07-11.99-.03-1.87-.04-2.59.52-2.34,2.48,1.8,13.62,10.99,24.45,24.66,26.65,11.77,1.9,21.93-1.58,30.51-9.73,1.32-1.26,2.22-1.43,3.55-.06,1.63,1.71,3.49,3.22,5.46,5.01Zm-8.94-33.14c-1.2-10.48-4.34-19.74-13.53-25.38-9.28-5.7-19.07-5.56-28.2.44-8.77,5.76-12.58,14.54-13.72,24.94h55.45Z"/>
  <path class="cls-1" d="m38.5,103.4v-51.21c0-3.33,0-3.34-3.45-3.34-10.71,0-21.41-.05-32.12.04-2.13.02-3.12-.49-2.9-2.79.17-1.82.15-3.68,0-5.5-.18-2.16.54-2.93,2.81-2.9,8.47.12,16.94.05,25.41.05,19.5,0,38.99.04,58.49-.05,2.38,0,3.39.57,3.12,3.06-.19,1.81-.14,3.67,0,5.5.14,1.96-.55,2.64-2.57,2.62-10.55-.08-21.09-.05-31.64-.03-4.71,0-4.61-.63-4.61,4.72,0,33.82,0,67.64,0,101.46q0,3.44-3.37,3.44c-2.16,0-4.32-.12-6.47.03-2.11.15-2.75-.6-2.74-2.71.08-13.8.04-27.6.04-41.4.01-3.66.01-7.32.01-10.99Z"/>
  <path class="cls-1" d="m199.85,93.25c-1.64-1.47-3.5-3.33-5.55-4.95-18.92-14.95-45.34-5.05-49.82,18.63-2.2,11.65.02,22.27,8.1,31.14,11.58,12.72,30.72,13.36,44.21,1.76,1.15-.99,2.16-2.16,3.39-3.02.54-.38,1.79-.53,2.2-.18,2.18,1.84,4.19,3.87,6.43,6.01-5.37,6.07-11.33,10.91-18.84,13.46-26.04,8.85-52.57-5.7-57.76-32.78-4.65-24.25,10.16-47.05,33.86-51.73,15.59-3.08,29.41,1.06,40.83,12.41.84.84,1.31,1.66.25,2.63-2.34,2.16-4.71,4.29-7.3,6.62Z"/>
  <path class="cls-1" d="m438.47,145.39c0,3.06.1,5.91-.07,8.75-.04.65-.88,1.53-1.56,1.82-7.77,3.31-15.76,3.83-23.78,1.14-7.67-2.57-11.62-8.36-12.89-16.1-.4-2.42-.49-4.91-.5-7.37-.04-16.35-.02-32.7-.02-49.05,0-3.19-.01-3.19-3.3-3.19-2.24,0-4.47-.04-6.71,0-1.43.04-2.03-.54-1.99-1.98.06-2.23.06-4.47,0-6.7-.04-1.46.61-1.99,2.02-1.95,2.08.06,4.15,0,6.23,0q3.74,0,3.74-3.62c0-5.74.07-11.49-.04-17.23-.04-2,.64-2.7,2.62-2.58,2.23.14,4.48.15,6.71,0,2.06-.14,2.82.52,2.77,2.68-.13,5.74-.05,11.48-.04,17.23,0,3.52.01,3.53,3.64,3.53,6.79,0,13.58.09,20.37-.05,2.37-.05,3.14.76,2.92,3.02-.15,1.58-.15,3.2,0,4.78.2,2.16-.54,2.94-2.81,2.89-7.19-.13-14.38,0-21.57-.09-2-.03-2.6.62-2.59,2.59.06,16.91-.01,33.82.06,50.72.03,8.01,5.21,13.12,13.27,13.23,2.22.03,4.48-.11,6.65-.51,2.18-.38,4.27-1.2,6.87-1.98Z"/>
  <path class="cls-1" d="m105.15,110.87c0-14.91.06-29.82-.06-44.72-.02-2.46.72-3.25,3.13-3.06,2.46.19,4.95.09,7.42.03,1.41-.03,2.1.5,2,1.95-.04.63,0,1.27,0,1.91v88.25c0,3.24,0,3.25-3.31,3.25-2.08,0-4.16-.13-6.23.04-2.28.19-3.02-.58-3-2.93.11-14.91.06-29.81.06-44.72Z"/>
  <path class="cls-1" d="m105.15,44.27q0-6.51,6.5-6.51,5.99,0,5.99,6.07c0,1.75.15,3.52-.08,5.24-.09.64-1.04,1.63-1.64,1.66-3.02.17-6.06.17-9.08,0-.59-.03-1.51-1.03-1.61-1.69-.24-1.56-.08-3.18-.08-4.77Z"/>
  <path class="cls-1" d="m546.01,105.8c1.7-7.49,4.56-13.71,11.76-16.51,6.44-2.51,12.71-1.86,18.14,2.83,3.59,3.1,5.31,7.27,6.35,11.78.26,1.15-.01,1.89-1.36,1.89-11.47,0-22.95,0-34.89,0Z"/>
</svg>